<svg width="15" height="15" viewBox="0 0 15 15" fill="none" xmlns="http://www.w3.org/2000/svg">
<path fill-rule="evenodd" clip-rule="evenodd" d="M2.90384 0.782478C2.31802 0.196693 1.36832 0.196693 0.782501 0.782478C0.196686 1.36827 0.196686 2.31801 0.782501 2.9038L5.37869 7.49999L0.782501 12.0962C0.196686 12.682 0.196686 13.6317 0.782501 14.2175C1.36832 14.8033 2.31802 14.8033 2.90384 14.2175L7.50003 9.62132L12.0962 14.2175C12.682 14.8033 13.6317 14.8033 14.2176 14.2175C14.8034 13.6317 14.8034 12.682 14.2176 12.0962L9.62137 7.49999L14.2176 2.9038C14.8034 2.31801 14.8034 1.36827 14.2176 0.782478C13.6317 0.196693 12.682 0.196693 12.0962 0.782478L7.50003 5.37867L2.90384 0.782478Z" fill="white"/>
</svg>
