<svg width="26" height="17" viewBox="0 0 26 17" fill="none" xmlns="http://www.w3.org/2000/svg">
<path fill-rule="evenodd" clip-rule="evenodd" d="M11 1.5C11 0.671574 11.6716 0 12.5 0H24.5C25.3284 0 26 0.671574 26 1.5C26 2.32843 25.3284 3 24.5 3H12.5C11.6716 3 11 2.32843 11 1.5ZM0 8.5C0 7.67157 0.671631 7 1.5 7H24.5C25.3284 7 26 7.67157 26 8.5C26 9.32843 25.3284 10 24.5 10H1.5C0.671631 10 0 9.32843 0 8.5ZM1.5 14C0.671631 14 0 14.6716 0 15.5C0 16.3284 0.671631 17 1.5 17H13.5C14.3284 17 15 16.3284 15 15.5C15 14.6716 14.3284 14 13.5 14H1.5Z" fill="white"/>
</svg>
