<svg width="45" height="37" viewBox="0 0 45 37" fill="none" 
  xmlns="http://www.w3.org/2000/svg">
  <path fill-rule="evenodd" clip-rule="evenodd" d="M16.1984 0.879071L16.4178 6.26228C16.425 6.44036 16.5696 6.58094 16.7455 6.58094H29.1161C29.2973 6.58094 29.4441 6.72971 29.4441 6.91327V20.3452C29.4441 20.5287 29.2973 20.6775 29.1161 20.6775H17.1958C17.0258 20.6775 16.884 20.809 16.869 20.9805L16.5948 24.1116L16.4581 27.0472L16.3776 30.528C16.3766 30.5704 16.3676 30.6122 16.3511 30.6511L16.2941 30.786L16.2827 30.8051C16.2389 30.8792 16.1599 30.9245 16.0746 30.9245C16.0569 30.9245 16.0393 30.9226 16.022 30.9186L15.802 30.8691L15.639 30.8072C15.6021 30.7932 15.5631 30.786 15.5238 30.786H15.415C15.3466 30.786 15.2799 30.8077 15.2243 30.8479L15.1394 30.9093C15.1255 30.9195 15.1108 30.9284 15.0955 30.9362L14.8716 31.0496C14.854 31.0585 14.8372 31.069 14.8214 31.081L14.573 31.2697C14.5361 31.2977 14.5054 31.3333 14.4831 31.3741L14.4216 31.4862C14.3945 31.5355 14.3803 31.5911 14.3803 31.6476V31.8351C14.3803 31.9091 14.4047 31.9809 14.4494 32.0392L14.5335 32.1487C14.5587 32.1816 14.5777 32.2189 14.5893 32.2589L14.6951 32.6233C14.7039 32.6538 14.7084 32.6854 14.7084 32.7171V33.0339C14.7084 33.0676 14.7034 33.101 14.6935 33.1331L14.6033 33.4254C14.5827 33.492 14.5834 33.5634 14.6052 33.6296L14.6945 33.901C14.7037 33.929 14.7166 33.9557 14.7328 33.9803L14.9818 34.3586L15.0292 34.4546C15.0519 34.5008 15.0638 34.5517 15.0638 34.6032V34.6104C15.0638 34.7136 15.0165 34.8109 14.9357 34.8738L14.7084 35.051L14.2196 35.4754C14.1903 35.5009 14.208 35.5495 14.2466 35.5495C14.2924 35.5495 14.3045 35.6135 14.262 35.6306L14.2013 35.6553C14.1932 35.6586 14.186 35.6638 14.1803 35.6705L14.0841 35.7842C14.0454 35.83 13.9951 35.8642 13.9387 35.8833L13.7946 35.9319C13.7362 35.9516 13.6969 36.007 13.6969 36.0693C13.6969 36.1493 13.6328 36.2142 13.5539 36.2142H13.4937C13.4833 36.2142 13.473 36.2149 13.4628 36.2165L13.1481 36.2656C13.1312 36.2682 13.1146 36.2725 13.0986 36.2783L12.7877 36.3908C12.7644 36.3992 12.74 36.3818 12.74 36.3568C12.74 36.3246 12.7016 36.3085 12.6791 36.3312L12.5997 36.4116C12.5539 36.458 12.5767 36.5375 12.64 36.5517L12.7052 36.5664C12.7279 36.5715 12.7516 36.5697 12.7733 36.5613L13.261 36.3731C13.2961 36.3596 13.3334 36.3526 13.371 36.3526C13.5481 36.3526 13.6877 36.5032 13.686 36.6826C13.6834 36.9416 13.7014 37.117 13.7789 36.7404C13.8882 36.2086 15.7199 35.7618 16.6221 35.6049L17.6183 35.3588C17.6985 35.339 17.7831 35.3505 17.8553 35.3911L18.1388 35.5507C18.1925 35.5809 18.2602 35.5626 18.2918 35.5092C18.308 35.4819 18.3346 35.4626 18.3653 35.4558L18.9115 35.3355C18.9344 35.3305 18.9578 35.3279 18.9812 35.3279H19.7231C19.7517 35.3279 19.7801 35.3242 19.8077 35.3167L20.0695 35.246C20.1387 35.2273 20.2 35.1861 20.244 35.1289L20.3414 35.002C20.3588 34.9794 20.379 34.9591 20.4015 34.9417L20.8536 34.5928C20.9107 34.5487 20.9806 34.5248 21.0524 34.5248H21.2238C21.2543 34.5248 21.2846 34.5205 21.3139 34.512L21.8439 34.3586L23.7286 33.6326C23.7659 33.6182 23.8054 33.6109 23.8452 33.6109H24.5876C24.6174 33.6109 24.647 33.6068 24.6757 33.5987L26.3001 33.1401L26.748 33.0446C26.7951 33.0345 26.8439 33.0351 26.8908 33.0462L27.1209 33.1011C27.2235 33.1255 27.3314 33.0984 27.4107 33.0281C27.4702 32.9753 27.5466 32.9462 27.6257 32.9462H27.8631C27.914 32.9462 27.9642 32.9582 28.0098 32.9813L28.1446 33.0496C28.1901 33.0727 28.2404 33.0847 28.2913 33.0847H28.5604C28.6199 33.0847 28.6782 33.1011 28.7292 33.132L28.8991 33.2353C28.9162 33.2456 28.9322 33.2575 28.947 33.2708L29.5322 33.7924C29.5759 33.8314 29.6412 33.8323 29.6859 33.7945C29.7342 33.7537 29.7426 33.6817 29.7048 33.6306L29.6507 33.5576C29.6231 33.5203 29.6082 33.4748 29.6082 33.4281V33.344C29.6082 33.2831 29.6247 33.2233 29.656 33.1712L29.9569 32.6704C29.9762 32.6383 29.9683 32.5967 29.9386 32.5742C29.907 32.5502 29.9005 32.5048 29.9239 32.4726L30.2153 32.0719C30.2461 32.0296 30.295 32.0046 30.3469 32.0046C30.4372 32.0046 30.5103 31.9305 30.5103 31.839V31.8176C30.5103 31.7772 30.5233 31.7378 30.5473 31.7055L30.8393 31.3111C30.8912 31.2408 30.9137 31.1526 30.9017 31.0657L30.784 30.2112C30.7671 30.088 30.8194 29.9655 30.9198 29.8938L31.1716 29.7136C31.2005 29.693 31.2112 29.6547 31.1973 29.6218C31.1654 29.5464 31.258 29.4804 31.3172 29.5364L31.4048 29.6192C31.4407 29.6533 31.4958 29.6557 31.5346 29.6252L31.6773 29.5127C31.7012 29.4939 31.7222 29.4717 31.7397 29.4469L31.8194 29.3338C31.8393 29.3056 31.85 29.272 31.85 29.2374C31.85 29.1838 31.8755 29.1336 31.9185 29.1025L31.9456 29.0828C32.0057 29.0394 32.0413 28.9692 32.0413 28.8944V28.8483C32.0413 28.7792 32.0048 28.7155 31.9456 28.6812C31.8865 28.647 31.85 28.5832 31.85 28.5142V28.3103C31.85 28.2632 31.8637 28.2172 31.8895 28.1781C31.9331 28.1118 32.0065 28.0719 32.0852 28.0719H32.1233C32.175 28.0719 32.2236 28.0473 32.2546 28.0055C32.2759 27.9767 32.2874 27.9417 32.2874 27.9058V27.6464C32.2874 27.5808 32.2682 27.5166 32.2323 27.462L32.1785 27.3802C32.1425 27.3256 32.1233 27.2615 32.1233 27.1959V26.7317C32.1233 26.7022 32.1272 26.6728 32.1349 26.6443L32.2054 26.3826L32.3485 25.9959C32.3623 25.9586 32.3694 25.9191 32.3694 25.8793V25.3302C32.3694 25.1623 32.2713 24.8155 32.2144 24.6381C32.2085 24.6194 32.2007 24.6014 32.1914 24.5841L32.0796 24.3765C32.0566 24.3337 32.062 24.2811 32.0933 24.2441C32.1468 24.1808 32.1184 24.0823 32.0404 24.0559C31.9924 24.0397 31.9593 23.994 31.9593 23.9428V23.7589C31.9593 23.7004 31.9397 23.6436 31.9036 23.5979C31.8688 23.5539 31.8207 23.5226 31.7667 23.5089L31.7239 23.4981C31.6646 23.4831 31.6136 23.4448 31.5821 23.3917C31.5606 23.3553 31.5492 23.3138 31.5492 23.2715V23.2295C31.5492 23.1724 31.5339 23.1164 31.5049 23.0675C31.4801 23.0257 31.446 22.9902 31.4053 22.964L31.3184 22.9079C31.2238 22.8469 31.1665 22.7412 31.1665 22.6275V22.5272C31.1665 22.4955 31.1789 22.465 31.2011 22.4426C31.2436 22.3995 31.3114 22.3957 31.3584 22.4338L31.3664 22.4403C31.3957 22.464 31.4337 22.4738 31.4706 22.4669L31.6746 22.4294C31.7003 22.4246 31.7253 22.4168 31.7492 22.4061L31.9356 22.3221C31.9514 22.315 31.9677 22.3092 31.9844 22.3047L32.3694 22.2007L32.7539 22.0925C32.8237 22.0729 32.8851 22.0304 32.9285 21.9717L32.9599 21.9293C33.0025 21.8717 33.0255 21.8018 33.0255 21.7299V21.5979C33.0255 21.543 32.9949 21.4928 32.9464 21.4682C32.9265 21.4582 32.9046 21.4529 32.8824 21.4529H32.6766C32.6544 21.4529 32.6325 21.4477 32.6125 21.4377C32.5641 21.4131 32.5334 21.3629 32.5334 21.3079V21.2942C32.5334 21.2537 32.548 21.2146 32.5743 21.1841L32.7093 21.0278C32.7196 21.0158 32.7308 21.0046 32.7427 20.9943L32.8062 20.9391C32.8741 20.8802 32.9053 20.7887 32.8878 20.6998C32.8714 20.6168 32.8147 20.5478 32.7371 20.5163L32.5881 20.4559C32.5234 20.4297 32.5063 20.345 32.5555 20.2951L32.567 20.2834C32.5808 20.2694 32.5981 20.2595 32.6171 20.2548L32.6648 20.2426C32.8074 20.2065 32.8997 20.0667 32.878 19.9194L32.7284 18.9017C32.726 18.8855 32.7248 18.8691 32.7248 18.8527V18.4732C32.7248 18.3334 32.6385 18.2086 32.5089 18.1608L32.1613 18.0328C32.1363 18.0236 32.1136 18.0089 32.0947 17.9898C32.0605 17.9552 32.0142 17.9357 31.9658 17.9357H31.9157C31.8724 17.9357 31.8296 17.9451 31.7901 17.9633L31.5492 18.0742L31.4091 18.131C31.3314 18.1624 31.2426 18.1345 31.1962 18.0639C31.1768 18.0345 31.1665 17.9999 31.1665 17.9645V17.1154C31.1665 17.092 31.1534 17.0706 31.1328 17.0601C31.0956 17.0412 31.0875 16.991 31.1169 16.9612L31.1345 16.9434C31.1543 16.9233 31.1832 16.9154 31.2102 16.9226L31.7714 17.0709C31.7873 17.0751 31.8035 17.0781 31.8198 17.0798L32.3147 17.1326H32.7958C32.8335 17.1326 32.8655 17.1045 32.8708 17.0667C32.8821 16.9865 32.9927 16.9775 33.018 17.0543C33.0229 17.0692 33.0322 17.0822 33.0446 17.0916L33.1735 17.1896C33.2169 17.2225 33.2749 17.2278 33.3234 17.2033C33.3433 17.1932 33.3652 17.188 33.3874 17.188H33.4737C33.5433 17.188 33.5997 17.2451 33.5997 17.3155C33.5997 17.3407 33.5923 17.3653 33.5785 17.3863L33.5578 17.4177C33.5152 17.4824 33.5045 17.5635 33.5288 17.6373L33.5478 17.6951C33.5639 17.7441 33.5911 17.7886 33.6271 17.8251L33.6943 17.8931C33.7221 17.9213 33.7547 17.9441 33.7905 17.9606L33.9239 18.0221C33.9939 18.0543 34.0756 18.0463 34.1382 18.001C34.1949 17.96 34.2284 17.8939 34.2284 17.8234V17.4701C34.2284 17.4122 34.2434 17.3554 34.2717 17.3052L34.3196 17.2203C34.3317 17.1988 34.3461 17.1788 34.3626 17.1606L34.5383 16.9665C34.602 16.896 34.6327 16.8012 34.6226 16.7062L34.5589 16.1093C34.5417 15.9485 34.6414 15.7985 34.7949 15.754L35.2269 15.629C35.267 15.6174 35.2947 15.5802 35.2947 15.5379C35.2947 15.4856 35.2528 15.4432 35.2012 15.4432H34.5871C34.5141 15.4432 34.4432 15.4186 34.3856 15.3732L34.2608 15.2748C34.2393 15.2579 34.22 15.2383 34.2033 15.2166L34.1062 15.0901C34.0614 15.0318 34.0371 14.96 34.0371 14.886V14.4077C34.0371 14.3267 34.072 14.2497 34.1328 14.197L34.1847 14.1519C34.2124 14.1278 34.2284 14.0925 34.2284 14.0554C34.2284 13.9932 34.1841 13.9402 34.1236 13.93L34.0644 13.92C33.9698 13.904 33.9004 13.8211 33.9004 13.7239V13.7007C33.9004 13.6629 33.891 13.6257 33.8731 13.5924L33.7764 13.4128C33.7501 13.364 33.7363 13.3093 33.7363 13.2537V12.9418C33.7363 12.911 33.7321 12.8802 33.7237 12.8506L33.5849 12.3585C33.5766 12.3288 33.5723 12.298 33.5723 12.2672V12.1467C33.5723 12.0586 33.6069 11.9741 33.6684 11.9118L33.6856 11.8944C33.8068 11.7716 33.8143 11.5749 33.7027 11.4431L33.6083 11.3316C33.5845 11.3034 33.5562 11.2795 33.5245 11.2608L33.3473 11.156C33.2807 11.1167 33.23 11.0549 33.2039 10.9815L32.9982 10.4028C32.9731 10.3519 33.0096 10.292 33.0658 10.292H33.1622H33.2065C33.3441 10.292 33.4671 10.205 33.5145 10.0741L33.7179 9.51208C33.7301 9.47835 33.7477 9.44688 33.7698 9.41886L33.8832 9.27523C33.9297 9.21635 33.9551 9.14313 33.9551 9.06763V8.74184C33.9551 8.68683 33.9686 8.63266 33.9943 8.58425L34.1007 8.38397C34.1289 8.33101 34.1834 8.298 34.2428 8.298C34.3014 8.298 34.3555 8.33018 34.384 8.38208L34.4332 8.47198C34.4603 8.52133 34.4745 8.57689 34.4745 8.63338V8.8962C34.4745 8.94007 34.4659 8.9835 34.4493 9.02404L34.3378 9.29501L33.6841 10.4667C33.6471 10.5328 33.6337 10.6098 33.6461 10.6848L33.6658 10.8048C33.6761 10.8678 33.7043 10.9264 33.7466 10.9737L34.1908 11.4686C34.2158 11.4964 34.2358 11.5282 34.2502 11.5628L34.5033 12.1685C34.5204 12.2095 34.5292 12.2536 34.5292 12.298V12.4104C34.5292 12.4909 34.5004 12.5687 34.448 12.6293L34.3881 12.6986C34.3557 12.7362 34.3378 12.7843 34.3378 12.8342C34.3378 12.9064 34.3753 12.9735 34.4364 13.0106L34.444 13.0153C34.4642 13.0275 34.4823 13.043 34.4976 13.0611L34.6199 13.2056C34.6323 13.2203 34.646 13.2337 34.6609 13.2458C34.7332 13.3043 34.7752 13.393 34.7752 13.4868V13.5323V13.6842C34.7752 13.7114 34.784 13.7379 34.8001 13.7597L34.8031 13.7638C34.835 13.8069 34.8916 13.823 34.9411 13.803C34.9745 13.7894 35.0121 13.7921 35.0434 13.8101L35.1107 13.8492C35.1569 13.8759 35.1853 13.9255 35.1853 13.9793C35.1853 14.0127 35.1963 14.0451 35.2165 14.0714L35.3767 14.28L35.4903 14.4144C35.5235 14.4535 35.5472 14.4999 35.5595 14.55L35.5954 14.6955L35.6443 14.9184C35.6482 14.9359 35.6534 14.9531 35.66 14.9697L35.6677 14.9893C35.6919 15.0504 35.7337 15.1027 35.7878 15.1393C35.8406 15.1749 35.9026 15.194 35.9661 15.194H36.0328H36.1969H36.3733C36.4192 15.194 36.4646 15.2037 36.5066 15.2226L36.6436 15.2843C36.6736 15.2979 36.7016 15.3159 36.7264 15.3379L36.7956 15.3993C36.8668 15.4624 36.9077 15.5535 36.9077 15.6494V15.6639C36.9077 15.7047 36.9151 15.7451 36.9295 15.7831L36.9519 15.8422C36.976 15.9055 37.0256 15.9553 37.0883 15.9792L37.1415 15.9994C37.1832 16.0152 37.2299 16.0084 37.2656 15.9814C37.2985 15.9564 37.3178 15.9172 37.3178 15.8756V15.739C37.3178 15.7081 37.322 15.6774 37.3304 15.6477L37.3522 15.5703C37.3651 15.5246 37.3963 15.4865 37.4382 15.4653C37.4667 15.4509 37.4905 15.4285 37.5068 15.4009L37.5238 15.3723C37.55 15.3281 37.5638 15.2775 37.5638 15.226V15.1371C37.5638 15.1014 37.5581 15.0659 37.547 15.032L37.4986 14.8851C37.4875 14.8512 37.471 14.8194 37.4499 14.7908L37.3427 14.6461C37.3262 14.6237 37.3068 14.6035 37.2852 14.586L37.0444 14.3908L36.8056 14.2457C36.7826 14.2317 36.7614 14.215 36.7424 14.1957L36.6344 14.0863C36.5984 14.0498 36.5712 14.0053 36.5551 13.9563L36.5144 13.8327C36.5033 13.7988 36.4976 13.7633 36.4976 13.7276V13.2607C36.4976 13.1889 36.5356 13.1226 36.5972 13.087C36.6545 13.0537 36.7244 13.0518 36.7836 13.0817L36.8816 13.1313C36.8989 13.1401 36.9146 13.1516 36.9283 13.1654C36.9941 13.232 36.9988 13.3384 36.9393 13.4108L36.9265 13.4263C36.914 13.4415 36.9038 13.4584 36.8961 13.4766L36.8748 13.5269C36.8432 13.6017 36.8397 13.6857 36.8651 13.7629L36.8832 13.8179C36.8993 13.8668 36.9264 13.9113 36.9625 13.9478L37.0833 14.0702C37.1118 14.0991 37.1452 14.1223 37.182 14.1389L37.334 14.2074C37.3594 14.2188 37.3868 14.2246 37.4145 14.2246C37.5028 14.2246 37.5805 14.1653 37.6048 14.0792L37.612 14.0536C37.6163 14.0385 37.6185 14.0228 37.6185 14.007V13.9907C37.6185 13.9313 37.6542 13.8779 37.7087 13.8558C37.7388 13.8436 37.7639 13.8214 37.78 13.7929L37.7869 13.7806C37.8317 13.7013 37.9265 13.6666 38.011 13.6987L38.0232 13.7033C38.0623 13.7182 38.0957 13.7451 38.1188 13.7803L38.1397 13.8118C38.1742 13.8643 38.1926 13.9259 38.1926 13.989V14.3908L38.1417 15.0353C38.1392 15.0671 38.1322 15.0983 38.1209 15.128L38.0107 15.4182C38.0044 15.4348 37.9968 15.451 37.9879 15.4664L37.6508 16.0518C37.6295 16.0888 37.6154 16.1297 37.6094 16.1722L37.5695 16.4548C37.5657 16.4819 37.5652 16.5094 37.5681 16.5366L37.6067 16.908C37.6143 16.9817 37.5974 17.056 37.5586 17.1189L37.4818 17.2434L37.1641 17.6394C37.1392 17.6705 37.12 17.7059 37.1075 17.7439L37.0612 17.8845C37.0501 17.9184 37.0444 17.9539 37.0444 17.9897V18.5187C37.0444 18.5545 37.0501 18.59 37.0612 18.6239L37.0774 18.6731C37.1078 18.7655 37.1838 18.8349 37.2776 18.856L37.3174 18.8649C37.353 18.873 37.3903 18.8683 37.4229 18.8517C37.4606 18.8327 37.4893 18.7992 37.5026 18.7587L37.5564 18.5951C37.5613 18.5802 37.5673 18.5657 37.5742 18.5516L37.7552 18.185L37.8029 18.0762C37.8404 17.9908 37.924 17.9357 38.0163 17.9357C38.0601 17.9357 38.1029 17.9482 38.1401 17.9717L38.2517 18.0424C38.283 18.0622 38.302 18.0969 38.302 18.1342C38.302 18.1664 38.3161 18.1969 38.3405 18.2174L38.4431 18.3041C38.4583 18.317 38.4724 18.3312 38.4851 18.3467L38.5266 18.3972C38.5758 18.4569 38.6027 18.5322 38.6027 18.6099V18.6148C38.6027 18.642 38.606 18.6691 38.6125 18.6955L38.6574 18.8773L38.7054 19.0072C38.727 19.0654 38.7724 19.1114 38.8299 19.1333L38.848 19.1402C38.915 19.1656 38.9906 19.149 39.0413 19.0977C39.0755 19.063 39.0948 19.0159 39.0948 18.9668V18.8541C39.0948 18.8328 39.0982 18.8116 39.1049 18.7914L39.1314 18.7108C39.1422 18.6779 39.1725 18.6558 39.2067 18.6558C39.2506 18.6558 39.2862 18.6198 39.2862 18.5753V18.5128C39.2862 18.4974 39.2886 18.4822 39.2934 18.4676L39.3113 18.4131C39.3306 18.3545 39.3657 18.3025 39.4125 18.2629L39.4698 18.2146C39.4931 18.1949 39.5189 18.1787 39.5466 18.1662L39.7092 18.093C39.7369 18.0805 39.7627 18.0642 39.786 18.0446L39.8695 17.9741C39.8996 17.9487 39.9249 17.9181 39.9443 17.8837L39.9811 17.8185C40.0094 17.7683 40.0243 17.7115 40.0243 17.6536V17.5012C40.0243 17.4589 40.0163 17.4171 40.0009 17.3778L39.9379 17.2184C39.9228 17.18 39.9006 17.1448 39.8727 17.1146L39.5235 16.7372C39.5111 16.7239 39.4998 16.7095 39.4898 16.6943L39.2587 16.3431C39.2407 16.3156 39.2267 16.2857 39.2174 16.2542L39.1633 16.0715C39.1541 16.0405 39.1495 16.0083 39.1495 15.976V15.892C39.1495 15.8529 39.1648 15.8154 39.1921 15.7877C39.2454 15.7338 39.3305 15.7298 39.3884 15.7787L39.4125 15.7991C39.4372 15.8199 39.4559 15.8471 39.4667 15.8778L39.5702 16.1713C39.5813 16.2027 39.597 16.2322 39.6167 16.2589L39.6949 16.3645C39.7314 16.4138 39.7819 16.4507 39.8396 16.4701C39.889 16.4869 39.9418 16.4902 39.9929 16.4798L40.0963 16.4589C40.1563 16.4467 40.2115 16.4168 40.2548 16.3729C40.3005 16.3266 40.3308 16.267 40.3414 16.2024L40.4152 15.7538C40.4276 15.6783 40.414 15.6008 40.3764 15.5343L40.325 15.4432L39.1257 13.8774C39.1052 13.8505 39.0808 13.8271 39.0533 13.8078L38.7599 13.6021C38.7462 13.5925 38.7319 13.584 38.717 13.5766L36.5319 12.4968C36.5091 12.4856 36.4877 12.4717 36.468 12.4553L36.2613 12.284C36.219 12.249 36.186 12.2038 36.1654 12.1526L35.9758 11.6832C35.9593 11.6424 35.9349 11.6053 35.9042 11.5741L35.7188 11.3863C35.6573 11.324 35.6227 11.2395 35.6227 11.1514V10.766C35.6227 10.7273 35.6161 10.6888 35.603 10.6524L35.5429 10.4849C35.5236 10.431 35.5182 10.3731 35.5275 10.3167L35.5578 10.1327C35.5646 10.0916 35.5789 10.0521 35.6001 10.0163L35.7674 9.73397C35.798 9.68234 35.8141 9.62324 35.8141 9.56298V9.43204C35.8141 9.39631 35.8084 9.36081 35.7973 9.32691L35.7477 9.17636C35.7202 9.09273 35.7266 9.00144 35.7656 8.92263L35.905 8.64009C35.9348 8.57966 35.9458 8.51142 35.9363 8.44451L35.8688 7.96567L35.7183 6.99979C35.7094 6.94307 35.7152 6.88502 35.7351 6.83124L35.8463 6.53109C35.861 6.49121 35.8648 6.44806 35.8573 6.40618C35.8337 6.27474 35.7071 6.18945 35.5783 6.21819L34.3538 6.49181C34.1491 6.53757 33.9551 6.37971 33.9551 6.16729V0.332338C33.9551 0.14479 33.802 -0.00560745 33.6169 0.000160539L16.5161 0.533183C16.3336 0.53887 16.1908 0.694321 16.1984 0.879071ZM8.8305 7.68872L8.47509 9.90429H4.86634C4.40158 9.92273 3.46659 10.1646 3.44471 10.9844C3.41986 11.9159 4.43424 12.1608 5.27616 12.3641C5.3604 12.3844 5.44291 12.4043 5.52248 12.4245C5.57683 12.4383 5.63783 12.4529 5.70442 12.4688L5.70452 12.4689C6.70985 12.7098 8.98943 13.2561 8.91252 15.7755C8.8305 18.4619 6.17862 19.4312 4.92102 19.4312H0L0.464763 17.2434H4.42892C4.94836 17.2249 6.03645 16.9664 6.23329 16.0802C6.46572 15.0337 4.6001 14.6051 4.00106 14.4675L4.00097 14.4675C3.96591 14.4594 3.93518 14.4523 3.90948 14.4462C3.88716 14.4409 3.8596 14.4347 3.82738 14.4275L3.82689 14.4274L3.82685 14.4274C3.18736 14.2847 0.717415 13.7336 0.847509 11.1505C0.984204 8.43648 3.25334 7.68872 5.44046 7.68872H8.8305ZM17.0049 11.289C17.2236 9.62736 16.0936 8.32571 15.5012 7.8826H20.723L21.4611 13.8092L24.0583 7.8826H28.6513L26.7376 19.4036H23.5936L25.2339 10.0705L21.2424 19.4036H19.274L18.2351 10.0705L16.7862 19.4036H9.59601L10.3342 15.0278H13.1501C15.3099 15.0278 16.7315 13.3661 17.0049 11.289ZM10.7442 12.3691L11.1269 9.93201H12.4119C12.822 9.93201 13.5875 10.292 13.4781 11.3444C13.3906 12.1863 12.421 12.3784 11.9471 12.3691H10.7442ZM37.9935 19.4634L37.9982 19.4776C38.0177 19.5366 38.0594 19.5853 38.1142 19.6131L38.1459 19.6291C38.1766 19.6447 38.2104 19.6528 38.2448 19.6528H38.2747C38.3803 19.6528 38.466 19.566 38.466 19.4591C38.466 19.4228 38.4559 19.3872 38.4369 19.3564L38.4158 19.3222C38.3635 19.2375 38.2656 19.1937 38.1687 19.2115L38.1374 19.2173C38.0703 19.2297 38.0151 19.2781 37.9935 19.3436C37.9807 19.3825 37.9807 19.4245 37.9935 19.4634ZM35.8627 18.3557L35.7138 18.1295C35.6898 18.093 35.6484 18.0552 35.62 18.0883C35.5416 18.1799 35.477 18.5506 35.4224 18.8638L35.4224 18.8639C35.3845 19.0811 35.3515 19.2706 35.322 19.3204C35.24 19.4589 35.3767 19.8743 35.7594 19.9574C36.1422 20.0405 36.2789 20.4559 35.8961 21.3975C35.5899 22.1508 35.8961 22.4315 36.0875 22.4776C36.288 22.5146 36.7928 22.3281 37.2084 21.2868C37.6239 20.2454 36.853 19.8005 36.4156 19.7082L36.0502 19.576C36.0387 19.5718 36.0277 19.5662 36.0174 19.5593C35.9758 19.5312 35.9508 19.4838 35.9508 19.4331V19.4035V19.2359C35.9508 19.2002 35.9565 19.1647 35.9676 19.1308L36.0328 18.9327L36.0733 18.7276C36.0826 18.6805 36.0794 18.6312 36.0644 18.5857C36.0442 18.5242 36.0026 18.4713 35.9478 18.4379C35.9138 18.4173 35.8847 18.3892 35.8627 18.3557ZM33.709 24.2778L33.7852 23.7114C33.789 23.6829 33.7965 23.6551 33.8075 23.6285L33.9155 23.3659C33.9236 23.3461 33.9336 23.3272 33.9454 23.3094L34.11 23.0591C34.1341 23.0226 34.1649 22.9913 34.201 22.967L34.2278 22.9489C34.2817 22.9125 34.345 22.8931 34.4098 22.8931H34.4471C34.5504 22.8931 34.6476 22.9423 34.7096 23.026L34.8042 23.1538C34.8389 23.2007 34.8608 23.2561 34.8676 23.3144L34.9531 24.051C34.9618 24.1261 34.945 24.202 34.9055 24.2661L34.7431 24.5293C34.7105 24.5821 34.6932 24.6431 34.6932 24.7055V25.6348V25.8202C34.6932 25.8437 34.6857 25.8665 34.6718 25.8853C34.6377 25.9313 34.645 25.9961 34.6883 26.0332L34.7854 26.1166C34.886 26.2028 34.9 26.3547 34.8169 26.4584L34.6846 26.6234C34.6371 26.6826 34.6112 26.7566 34.6112 26.8329V26.9946C34.6112 27.0648 34.6332 27.1332 34.6739 27.1901L34.7799 27.3377C34.812 27.3824 34.8261 27.4378 34.8193 27.4927C34.8091 27.5759 34.7526 27.6457 34.6741 27.6722L34.5809 27.7037C34.5646 27.7092 34.548 27.7134 34.5311 27.7162L34.1279 27.7843C33.9914 27.8073 33.8838 27.9147 33.8591 28.0526L33.8158 28.2938C33.8009 28.377 33.7367 28.442 33.6546 28.4571C33.5594 28.4746 33.4903 28.5586 33.4903 28.6566V28.8034C33.4903 28.8847 33.4583 28.9628 33.4015 29.0204L33.3161 29.1069C33.234 29.1901 33.0988 29.1825 33.0262 29.0906C32.9763 29.0274 32.9695 28.9397 33.0092 28.8694L33.0528 28.792L33.2167 28.4126C33.2349 28.3706 33.2442 28.3253 33.2442 28.2794V27.9472C33.2442 27.884 33.2265 27.8221 33.1929 27.7688L33.1224 27.6565C33.0777 27.5853 33.0614 27.4997 33.0767 27.4168L33.1002 27.29C33.1209 27.1784 33.2104 27.0931 33.3216 27.079C33.3429 27.0763 33.3643 27.0763 33.3856 27.079L33.5723 27.1026H33.791H33.8081C33.859 27.1026 33.9004 27.0608 33.9004 27.0091C33.9004 26.9807 33.8876 26.9538 33.8657 26.9361L33.8524 26.9253C33.8018 26.8843 33.7896 26.8114 33.8239 26.7557L33.8671 26.6858C33.8888 26.6506 33.9004 26.6098 33.9004 26.5682V26.5545C33.9004 26.4968 33.8821 26.4406 33.8483 26.3942L33.4998 25.9168C33.4581 25.8595 33.4356 25.7903 33.4356 25.7192V25.279C33.4356 25.2396 33.4425 25.2005 33.456 25.1636L33.6885 24.5275C33.7021 24.4905 33.709 24.4515 33.709 24.4121V24.2778ZM35.8289 28.072H35.7769C35.722 28.072 35.6774 28.0268 35.6774 27.9711C35.6774 27.8792 35.5659 27.8352 35.5045 27.903L35.3767 28.0443L34.7044 28.6245C34.6646 28.6587 34.6494 28.7141 34.6659 28.7643L34.7033 28.859C34.7144 28.8872 34.7354 28.9103 34.7622 28.9239C34.8037 28.9449 34.8299 28.9879 34.8299 29.0348V29.1178C34.8299 29.1403 34.8351 29.1625 34.845 29.1827C34.8693 29.2318 34.9188 29.2628 34.9731 29.2628H35.0314C35.0783 29.2628 35.1241 29.2488 35.1631 29.2224L35.2198 29.1842C35.2508 29.1632 35.2872 29.152 35.3245 29.152H35.3709C35.4084 29.152 35.4432 29.172 35.4625 29.2046C35.4912 29.2531 35.5519 29.271 35.6019 29.2457L35.8415 29.1243L36.2342 28.9137C36.2815 28.8883 36.3342 28.8751 36.3877 28.8751H36.4202C36.4711 28.8751 36.5213 28.8871 36.5669 28.9102L36.6834 28.9693C36.705 28.9801 36.7233 28.9966 36.7367 29.0168C36.7585 29.05 36.7932 29.0722 36.8322 29.0778L36.9522 29.0952C36.9554 29.0957 36.9586 29.096 36.9619 29.0962C36.9654 29.0965 36.969 29.0967 36.9726 29.0967C37.0177 29.0967 37.0603 29.0751 37.0875 29.0384L37.0936 29.0302C37.1149 29.0014 37.1264 28.9664 37.1264 28.9305V28.8603C37.1264 28.8152 37.1354 28.7707 37.1529 28.7293L37.2084 28.5981L37.2904 28.3766L37.4115 28.1068C37.4219 28.0836 37.4296 28.0594 37.4345 28.0345L37.4754 27.8273C37.4797 27.8058 37.4818 27.784 37.4818 27.7621V27.5983C37.4818 27.5469 37.5019 27.4977 37.5378 27.4613C37.555 27.4439 37.5753 27.43 37.5977 27.4203L37.7238 27.3655C37.7447 27.3564 37.7664 27.3496 37.7887 27.3451L37.8609 27.3305C37.8815 27.3263 37.9025 27.3242 37.9235 27.3242C38.0241 27.3242 38.1187 27.3722 38.1791 27.4536L38.2373 27.5323C38.2406 27.5367 38.244 27.5411 38.2476 27.5453C38.2513 27.5495 38.2551 27.5537 38.2591 27.5577L38.2685 27.5672C38.2904 27.5895 38.3177 27.6057 38.3475 27.6143C38.4321 27.6388 38.5218 27.5988 38.5612 27.5191L38.5857 27.4695C38.5969 27.4468 38.6027 27.4218 38.6027 27.3964V27.3675C38.6027 27.3095 38.6416 27.2589 38.6972 27.2449C38.7071 27.2424 38.7172 27.2411 38.7274 27.2411H38.9348C38.9503 27.2411 38.9658 27.2422 38.9812 27.2444L39.0839 27.2593C39.1272 27.2656 39.1688 27.2806 39.2063 27.3033L39.314 27.3688C39.384 27.4114 39.4359 27.479 39.4594 27.5582L39.4911 27.6652C39.5002 27.6962 39.5049 27.7284 39.5049 27.7607V27.9171C39.5049 27.9611 39.5294 28.0013 39.5682 28.0209C39.5975 28.0358 39.6316 28.0372 39.662 28.0249L39.6782 28.0183C39.7239 27.9998 39.758 27.9602 39.77 27.9118L39.8056 27.7673L39.833 27.5458C39.833 27.4921 39.814 27.4403 39.7796 27.3996L39.7479 27.3621C39.6969 27.3019 39.6689 27.2252 39.6689 27.1458V26.9919V26.832C39.6689 26.7912 39.6764 26.7508 39.6908 26.7127L39.7935 26.4421C39.8016 26.4209 39.8117 26.4007 39.8238 26.3816L40.0326 26.0526C40.0453 26.0326 40.06 26.0141 40.0766 25.9973L40.1515 25.9215C40.1935 25.8789 40.2233 25.8255 40.2377 25.7671L40.3524 25.3025L40.3625 25.2203C40.3734 25.1324 40.3435 25.0443 40.2816 24.9816L40.2778 24.9777C40.2549 24.9544 40.2277 24.9358 40.1978 24.9229C40.1084 24.884 40.0485 24.797 40.0435 24.6985L39.9741 23.3405C39.9712 23.2832 39.983 23.2261 40.0083 23.1748L40.0575 23.0752C40.0892 23.0109 40.0995 22.9379 40.0868 22.8671L40.065 22.7456C40.0562 22.6968 40.0368 22.6506 40.0081 22.6105L39.7468 22.2439C39.7137 22.1974 39.693 22.143 39.6867 22.086L39.6796 22.0213C39.6726 21.9576 39.684 21.8933 39.7122 21.836L39.8804 21.4954C39.9031 21.4493 39.915 21.3984 39.915 21.3468V20.9267V20.7767C39.915 20.7482 39.9233 20.7202 39.939 20.6964C39.9587 20.6664 39.9888 20.645 40.0233 20.6362L40.043 20.6312C40.0668 20.6252 40.0892 20.6147 40.1092 20.6002L40.2053 20.5307C40.2481 20.4998 40.2976 20.4797 40.3496 20.4722L40.4324 20.4602C40.452 20.4574 40.4712 20.4528 40.4898 20.4465L40.5339 20.4316C40.5939 20.4113 40.6468 20.374 40.6863 20.3239L40.7351 20.2621L40.7704 20.2025C40.801 20.1509 40.8172 20.0918 40.8172 20.0315V19.9456C40.8172 19.9167 40.8134 19.8879 40.8061 19.8599L40.7078 19.4866L40.6649 19.2913C40.6571 19.2556 40.6552 19.2188 40.6591 19.1825L40.6749 19.0392C40.6784 19.0069 40.6673 18.9748 40.6446 18.9518C40.6163 18.9231 40.5745 18.9131 40.5366 18.9259L40.4874 18.9425C40.4528 18.9542 40.4223 18.9758 40.3995 19.0046L40.3251 19.0989L40.1935 19.2322C40.172 19.254 40.1475 19.2727 40.1208 19.2877L39.9385 19.3902C39.9228 19.3991 39.9065 19.4066 39.8895 19.4127L39.5628 19.5309C39.5425 19.5383 39.5229 19.5477 39.5044 19.559L39.3173 19.6726C39.2787 19.696 39.2453 19.7273 39.2192 19.7644L39.1221 19.902L38.9838 20.0947C38.9324 20.1664 38.8548 20.2143 38.7684 20.2277L38.5853 20.2563C38.5605 20.2601 38.5364 20.2671 38.5134 20.2771C38.4163 20.3192 38.3486 20.4104 38.3355 20.5165L38.3326 20.5398C38.3304 20.5577 38.3296 20.5758 38.3303 20.5938L38.3531 21.1953C38.3554 21.2551 38.3417 21.3146 38.3133 21.3672L37.8795 22.1729C37.8695 22.1914 37.8614 22.2108 37.855 22.2308L37.6615 22.8435C37.6511 22.8763 37.6358 22.9074 37.616 22.9354L37.2494 23.4553C37.2403 23.4682 37.2321 23.4817 37.225 23.4958L36.8624 24.2059C36.8382 24.2531 36.8257 24.3055 36.8257 24.3587V25.3998C36.8257 25.4439 36.8084 25.4862 36.7776 25.5173C36.7136 25.5822 36.6097 25.5822 36.5457 25.5173C36.5149 25.4862 36.4732 25.4687 36.4296 25.4687H36.34C36.2858 25.4687 36.2362 25.4997 36.212 25.5488C36.1863 25.6009 36.1939 25.6636 36.2314 25.7079L36.2749 25.7593C36.3127 25.8041 36.3336 25.8611 36.3336 25.92V26.161V27.0582C36.3336 27.0877 36.3374 27.1171 36.3451 27.1456L36.4304 27.4624C36.4699 27.6092 36.4061 27.7643 36.2753 27.8391L35.9035 28.0521C35.8808 28.0651 35.8551 28.072 35.8289 28.072ZM41.9666 17.7512L42.0948 17.7657C42.1178 17.7682 42.1404 17.7733 42.1624 17.7807L42.571 17.9187C42.6024 17.9293 42.6264 17.9555 42.6344 17.9881C42.6433 18.024 42.6712 18.0517 42.7067 18.06L44.3099 18.4348C44.3828 18.4518 44.4433 18.5031 44.4727 18.5728C44.4954 18.6263 44.4978 18.6863 44.4797 18.7415L44.3439 19.1543L44.297 19.3679C44.2918 19.3916 44.2892 19.4158 44.2892 19.44V19.6617C44.2892 19.6925 44.2934 19.7233 44.3018 19.7529L44.316 19.8032C44.3341 19.8676 44.3326 19.9361 44.3118 19.9996L44.3031 20.026C44.2938 20.054 44.281 20.0807 44.2648 20.1053L44.0709 20.3999C44.035 20.4545 44.0158 20.5186 44.0158 20.5843V20.752C44.0158 20.7943 44.0238 20.8361 44.0392 20.8754L44.1017 21.0335C44.1172 21.0728 44.1251 21.1146 44.1251 21.1569V21.2037C44.1251 21.2756 44.1482 21.3455 44.1908 21.4031L44.3993 21.6847C44.4346 21.7324 44.4566 21.7888 44.463 21.8481L44.9663 26.5134C44.9852 26.6887 44.8658 26.8484 44.6941 26.8773L44.3997 26.9271C44.3628 26.9333 44.3271 26.9459 44.2943 26.9643L44.2173 27.0077C44.1436 27.0492 44.0978 27.128 44.0978 27.2134V27.3804C44.0978 27.4685 44.0632 27.5531 44.0017 27.6154L43.8791 27.7396L43.7219 27.8635C43.6643 27.9088 43.5935 27.9335 43.5205 27.9335H43.4244C43.3673 27.9335 43.3143 27.9638 43.285 28.0135C43.2628 28.0509 43.2268 28.0779 43.185 28.0885L43.101 28.1097C43.0553 28.1214 43.0125 28.1428 42.9756 28.1727L42.9512 28.1925C42.9141 28.2226 42.8839 28.2604 42.8627 28.3034L42.8303 28.3689C42.8187 28.3924 42.8099 28.4173 42.8041 28.4428L42.7865 28.5203C42.7535 28.6648 42.6301 28.7697 42.484 28.7775L42.2766 28.7885C42.2346 28.7908 42.195 28.8087 42.1653 28.8388C42.1596 28.8445 42.1535 28.8498 42.1471 28.8548L42.0474 28.9305L41.952 28.9949C41.9072 29.0252 41.8546 29.0413 41.8008 29.0413H41.7314C41.6894 29.0413 41.6498 29.0212 41.6246 28.9872C41.5983 28.9516 41.5909 28.9053 41.6048 28.8632L41.6573 28.7037C41.6622 28.6887 41.6681 28.6742 41.6751 28.6601L41.8551 28.2954C41.8738 28.2576 41.8852 28.2165 41.8886 28.1744L41.9048 27.9768C41.9087 27.93 41.9027 27.8829 41.8873 27.8386L41.7691 27.4995C41.7543 27.4569 41.7311 27.4179 41.7008 27.3847L41.458 27.1182C41.4319 27.0896 41.411 27.0566 41.3962 27.0206L41.3071 26.804C41.2905 26.7634 41.2819 26.72 41.2819 26.6761V26.5518C41.2819 26.4953 41.2961 26.4397 41.3232 26.3904L41.4186 26.2164L41.4277 26.198C41.4712 26.1097 41.4542 26.0032 41.3853 25.9335C41.3711 25.9191 41.3589 25.9028 41.3489 25.8851L41.2978 25.7945C41.2695 25.7443 41.2545 25.6875 41.2545 25.6297V25.4964V25.4182C41.2545 25.3624 41.2301 25.3095 41.1878 25.2739C41.1291 25.2243 41.1064 25.1434 41.1305 25.07L41.1362 25.0528C41.1422 25.0347 41.1505 25.0175 41.1609 25.0016L41.2545 24.8594L41.309 24.7628C41.3423 24.7037 41.3378 24.6303 41.2975 24.5758C41.2871 24.5619 41.2747 24.5496 41.2607 24.5394L41.0905 24.4163L40.9608 24.3446C40.8553 24.2863 40.7898 24.1744 40.7898 24.0528V23.778C40.7898 23.7606 40.7867 23.7432 40.7807 23.7268C40.7454 23.6316 40.8149 23.53 40.9153 23.53H41.0174C41.1444 23.53 41.2436 23.419 41.2309 23.291L41.18 22.7753C41.1751 22.7252 41.159 22.6769 41.133 22.6341L41.0896 22.5627C41.01 22.4317 41.0296 22.2624 41.137 22.1536L41.2964 21.9922C41.3405 21.9475 41.3711 21.891 41.3846 21.8293L41.401 21.7549C41.4125 21.7023 41.4097 21.6475 41.3929 21.5964L41.3918 21.5932C41.3736 21.5379 41.3392 21.4896 41.2933 21.4547C41.2677 21.4352 41.2455 21.4115 41.2277 21.3844L41.091 21.1767C41.055 21.1221 41.0358 21.0579 41.0358 20.9923V19.9869C41.0358 19.9673 41.0375 19.9477 41.0409 19.9285L41.1725 19.182C41.2584 18.7831 41.4321 18.0605 41.5663 17.7369C41.6112 17.6283 41.7234 17.6203 41.8164 17.691C41.8602 17.7243 41.9121 17.7451 41.9666 17.7512Z" fill="white"/>
</svg>
