<svg width="71" height="71" viewBox="0 0 71 71" fill="none" 
  xmlns="http://www.w3.org/2000/svg">
  <g clip-path="url(#clip0)">
    <path d="M69.5137 41.1118C65.7427 54.5979 56.44 64.3877 47.3973 64.3877C46.671 64.3877 45.9454 64.3245 45.2385 64.1995C44.8376 64.1291 44.487 63.8934 44.2701 63.5515C44.0538 63.2073 43.9928 62.7892 44.1027 62.3984L45.9641 55.7402C46.1437 55.0972 46.7637 54.6625 47.4081 54.692L47.5561 54.6949C50.9096 54.6949 57.0384 49.6689 60.1628 38.4983C60.2864 38.055 60.4035 37.6017 60.5163 37.129C57.009 38.8647 52.8249 39.2662 49.036 38.2109C40.4883 35.8193 35.481 26.921 37.8705 18.3748C39.8073 11.45 46.1775 6.61224 53.3616 6.61224C54.825 6.61224 56.2862 6.81411 57.7051 7.2114C63.3418 8.78687 67.5797 13.4666 69.6387 20.3856C71.4972 26.6279 71.4505 34.182 69.5137 41.1118Z" fill="#ECECEC"/>
    <path d="M10.121 64.3856C9.39612 64.3856 8.66981 64.3238 7.96361 64.1988C7.56345 64.1299 7.21215 63.8928 6.99591 63.5508C6.77967 63.2067 6.7186 62.7886 6.8278 62.3978L8.68993 55.7395C8.86953 55.0965 9.47803 54.6619 10.1339 54.6914L10.2805 54.6942C13.634 54.6942 19.7635 49.6682 22.8879 38.4976C23.0122 38.0515 23.1293 37.5982 23.2414 37.1283C19.7327 38.864 15.5501 39.2656 11.7611 38.2103C3.21491 35.8187 -1.79386 26.9204 0.597014 18.3742C2.53386 11.4494 8.90402 6.6116 16.0881 6.6116C17.5516 6.6116 19.0128 6.81347 20.4324 7.21075C26.0683 8.78623 30.3063 13.466 32.3659 20.385C34.2238 26.6273 34.1778 34.1821 32.2402 41.1126C28.4671 54.5973 19.1658 64.3856 10.121 64.3856Z" fill="#ECECEC"/>
  </g>
  <defs>
    <clipPath id="clip0">
      <rect width="71" height="71" transform="matrix(1 1.74846e-07 1.74846e-07 -1 0 71)" fill="white"/>
    </clipPath>
  </defs>
</svg>
