<svg width="71" height="71" viewBox="0 0 71 71" fill="none" 
  xmlns="http://www.w3.org/2000/svg">
  <g clip-path="url(#clip0)">
    <path d="M1.48635 29.8882C5.2573 16.4021 14.56 6.6123 23.6027 6.6123C24.329 6.6123 25.0546 6.67552 25.7615 6.80053C26.1624 6.87093 26.513 7.10657 26.7299 7.44854C26.9462 7.79266 27.0072 8.21077 26.8973 8.60159L25.0359 15.2598C24.8563 15.9028 24.2363 16.3375 23.5919 16.308L23.4439 16.3051C20.0904 16.3051 13.9616 21.3311 10.8372 32.5017C10.7136 32.945 10.5965 33.3983 10.4837 33.871C13.991 32.1354 18.1751 31.7338 21.964 32.7891C30.5117 35.1807 35.519 44.079 33.1295 52.6252C31.1927 59.55 24.8225 64.3878 17.6384 64.3878C16.175 64.3878 14.7138 64.1859 13.2949 63.7886C7.65824 62.2131 3.42032 57.5334 1.36135 50.6144C-0.497185 44.3721 -0.450489 36.818 1.48635 29.8882Z" fill="#ECECEC"/>
    <path d="M60.879 6.61438C61.6039 6.61438 62.3302 6.67616 63.0364 6.80117C63.4365 6.87013 63.7879 7.10721 64.0041 7.44918C64.2203 7.79329 64.2814 8.21141 64.1722 8.60223L62.3101 15.2605C62.1305 15.9035 61.522 16.3381 60.8661 16.3086L60.7195 16.3058C57.366 16.3058 51.2365 21.3318 48.1121 32.5024C47.9878 32.9485 47.8707 33.4018 47.7586 33.8717C51.2674 32.136 55.45 31.7344 59.2389 32.7897C67.7851 35.1813 72.7939 44.0796 70.403 52.6258C68.4662 59.5506 62.096 64.3884 54.9119 64.3884C53.4485 64.3884 51.9872 64.1865 50.5676 63.7892C44.9317 62.2138 40.6938 57.534 38.6341 50.615C36.7763 44.3727 36.8222 36.8179 38.7598 29.8874C42.5329 16.4028 51.8342 6.61438 60.879 6.61438Z" fill="#ECECEC"/>
  </g>
  <defs>
    <clipPath id="clip0">
      <rect width="71" height="71" transform="matrix(-1 0 0 1 71 0)" fill="white"/>
    </clipPath>
  </defs>
</svg>
