<svg width="453" height="301" viewBox="0 0 453 301" fill="none" 
  xmlns="http://www.w3.org/2000/svg">
  <mask id="mask0" mask-type="alpha" maskUnits="userSpaceOnUse" x="0" y="0" width="453" height="301">
    <rect width="453" height="301" fill="#C4C4C4"/>
  </mask>
  <g mask="url(#mask0)">
    <rect y="-30" width="453" height="331" fill="#2F2F2F"/>
    <path d="M92 139.5L89.5 164L95.5 178.5L103.5 191L108 219.5C109.167 226.667 114.2 242.7 125 249.5C135.8 256.3 141.833 260 143.5 261C147.667 263.333 156.3 270 157.5 278C158.7 286 163.667 298.333 166 303.5" stroke="#393939" stroke-width="2"/>
    <path d="M317 287.5L326.5 302.5" stroke="#393939" stroke-width="2"/>
    <path d="M300.5 298L295 302.5H274L279.5 300L283.5 295L282 285L276 270L263 258L257.5 246L254.5 244.5L259.5 239.5L263 229L266 211.5L282 195L283.5 185L279.5 176.5L282 175L285.5 179.5H288L300 159L301.5 148.5C300.167 146.5 297.3 141.9 296.5 139.5C295.7 137.1 293.833 135.833 293 135.5H285.5L283.5 131.5L288 117.5L290 114.5H300L306 107.5L312 88L310.5 76.5L301.5 68.5V54.5L296.5 41L294.5 24.5L278 2L271 -11L274 -12L281.5 -7L306 4.5H318L320.5 2L300 -16.5L290.5 -31.5H440.5L439 -5L440.5 4.5L448 27V44.5L453 54.5L449.5 58L437 61.5L436 68.5L439 88L437 98L413 131.5L386 161L384.5 164L381.5 166L386 171.5L394 166L409.5 173L422 175L442 195L447.5 208L453 211H455.5V281L453 279.5L446 274.5L439 265L429 230.5L422 216L409.5 203L377.5 190L372.5 186.5L379 176.5L372.5 173L362 184L352 182L341.5 185L321 195L318.5 205.5L316 229L304.5 249.5L309.5 268.5L302.5 284L300.5 298Z" fill="#393939"/>
    <path d="M275 55.5L272.5 45.5L276.5 36.5H280L288 42.5L290.5 59.5L290 60L291 67L282 66L275 55.5Z" fill="#393939"/>
    <path d="M385 306L352 232C348.5 221.833 347.1 197.3 369.5 180.5C397.5 159.5 408 152.5 425.5 126.5C443 100.5 450 89 460 86" stroke="#636363" stroke-width="6"/>
    <path d="M342 127.5V131.5L346 128.5L359.5 98.5L350.5 109.5L342 127.5Z" fill="#2F2F2F"/>
    <path d="M323 144.5L311.5 148.5L298 188.5L299.5 210.5V220L298 229L299.5 235L303 239L311.5 230L315.5 197.5L335.5 168L337.5 149L330.5 145.5L323 144.5Z" fill="#2F2F2F"/>
    <path d="M-3.5 102L29 77.9999L79 26.9999C82.3333 22.6666 90.9 16.5999 98.5 26.9999C106.1 37.3999 121.333 52 128 58L144 75.5L168.5 105.5L185 125.5L201.5 142L215.5 146L258.5 148L277.5 146L299 164L321 177.5L341 209.5L347.5 212.5" stroke="#636363" stroke-width="2"/>
    <path d="M36.5 -33C38.8333 -29.5 41.6 -20.1 34 -10.5C26.4 -0.9 21.1666 5.16667 19.5 7C17 11 14.2 21.5 23 31.5C31.8 41.5 44.3333 53.3333 49.5 58" stroke="#636363" stroke-width="2"/>
    <path d="M144 -31C149.167 -27.6667 160.3 -19 163.5 -11C166.7 -3 173.167 14.3333 176 22L208.5 40L217 47.5L219.5 56.5L221.5 82L236.5 147" stroke="#636363" stroke-width="2"/>
    <path d="M260 -32L265 -6.5L289.5 28.5L297 69C297.833 72.5 298.5 81.1 294.5 87.5C290.5 93.9 280.167 113.5 275.5 122.5C273.667 127.833 271.7 140.1 278.5 146.5" stroke="#636363" stroke-width="2"/>
    <path d="M143 128.5L169.5 105.5" stroke="#636363" stroke-width="2"/>
    <path d="M-2 164L28.5 157L53.5 149" stroke="#636363" stroke-width="2"/>
    <path d="M124.5 303L92 273.5L73.5 260L67.5 251.5L64.5 231L58.5 222.5L24.5 196.5L6.5 180.5L-4 160" stroke="#636363" stroke-width="2"/>
    <path d="M89 192.5L91 200L87 207L58 221.5" stroke="#636363" stroke-width="2"/>
    <path d="M335 302.5L337 300L365.5 298L379 290.5L396 283L408 286L425.5 283C427.5 282.5 431.1 280.2 429.5 275C427.9 269.8 425.167 259.833 424 255.5L418.5 243L409.5 218L357 195" stroke="#636363" stroke-width="2"/>
    <path d="M374.5 204L369 218L396.5 282.5" stroke="#636363" stroke-width="2"/>
    <path d="M391 210.5L388.5 218.5L416.5 284.5" stroke="#636363" stroke-width="2"/>
    <path d="M418.5 243L401.5 249.5L384.5 257.5L367 265.5" stroke="#636363" stroke-width="2"/>
    <path d="M414.5 142.5L432.5 158" stroke="#636363" stroke-width="2"/>
    <path d="M457.5 169L419 136" stroke="#636363" stroke-width="2"/>
    <path d="M210.5 98C203.91 98 198.549 103.361 198.549 109.951C198.549 118.13 209.244 130.136 209.699 130.643C210.127 131.119 210.874 131.119 211.301 130.643C211.756 130.136 222.451 118.13 222.451 109.951C222.451 103.361 217.09 98 210.5 98ZM210.5 115.964C207.184 115.964 204.487 113.267 204.487 109.951C204.487 106.636 207.184 103.938 210.5 103.938C213.816 103.938 216.513 106.636 216.513 109.951C216.513 113.267 213.816 115.964 210.5 115.964Z" fill="#A48F73"/>
  </g>
</svg>
